<?xml version="1.0" ?>

<!DOCTYPE svg  PUBLIC '-//W3C//DTD SVG 1.1//EN'  'http://www.w3.org/Graphics/SVG/1.1/DTD/svg11.dtd'>

<!-- Uploaded to: SVG Repo, www.svgrepo.com, Generator: SVG Repo Mixer Tools -->
<svg fill="#000000" width="800px" height="800px" viewBox="0 0 100 100" version="1.1" xml:space="preserve" xmlns="http://www.w3.org/2000/svg" xmlns:xlink="http://www.w3.org/1999/xlink">

<g id="_x31_"/>

<g id="_x32_"/>

<g id="_x33_"/>

<g id="_x34_"/>

<g id="_x35_"/>

<g id="_x36_"/>

<g id="_x37_"/>

<g id="_x38__x27_"/>

<g id="_x39_"/>

<g id="_x31_0"/>

<g id="_x31_1"/>

<g id="_x31_2"/>

<g id="_x31_3"/>

<g id="_x31_4"/>

<g id="_x31_5">

<path d="M90.7,59.4H79.5c-0.8,0-1.5,0.7-1.5,1.5V68H38.3c-0.7-4.9-4.9-8.6-10-8.6s-9.3,3.7-10,8.6H9.3c-0.8,0-1.5,0.7-1.5,1.5   S8.4,71,9.3,71h9.1c0.7,4.9,4.9,8.6,10,8.6s9.3-3.7,10-8.6h41.2h11.2c0.8,0,1.5-0.7,1.5-1.5v-8.6C92.2,60.1,91.6,59.4,90.7,59.4z    M28.3,76.6c-3.9,0-7.1-3.2-7.1-7.1s3.2-7.1,7.1-7.1s7.1,3.2,7.1,7.1S32.3,76.6,28.3,76.6z M89.2,68H81v-5.6h8.2V68z M73,20.4H23.9   c-6.2,0-11.2,5-11.2,11.2v38c0,0.8,0.7,1.5,1.5,1.5h5.5c0.8,0,1.5-0.7,1.5-1.5c0-3.9,3.2-7.1,7.1-7.1s7.1,3.2,7.1,7.1   c0,0.8,0.7,1.5,1.5,1.5h6.4h20H73c0.8,0,1.5-0.7,1.5-1.5V21.9C74.5,21,73.8,20.4,73,20.4z M44.9,68V41.9h17V68H44.9z M71.5,68h-6.7   V40.4c0-0.8-0.7-1.5-1.5-1.5h-20c-0.8,0-1.5,0.7-1.5,1.5V68h-3.6c-0.7-4.9-4.9-8.6-10-8.6s-9.3,3.7-10,8.6h-2.6V31.5   c0-4.5,3.7-8.2,8.2-8.2h47.6V68z M48.8,58.2c-0.8,0-1.5-0.7-1.5-1.5v-3.3c0-0.8,0.7-1.5,1.5-1.5s1.5,0.7,1.5,1.5v3.3   C50.3,57.5,49.6,58.2,48.8,58.2z M35.8,47.2H22.1c-0.8,0-1.5-0.7-1.5-1.5V34.4c0-0.8,0.7-1.5,1.5-1.5h13.7c0.8,0,1.5,0.7,1.5,1.5   v11.3C37.3,46.5,36.6,47.2,35.8,47.2z M23.6,44.2h10.7v-8.3H23.6V44.2z"/>

</g>

<g id="_x31_6"/>

<g id="_x31_7"/>

<g id="_x31_8"/>

<g id="_x31_9"/>

<g id="_x32_0"/>

<g id="_x32_1"/>

<g id="_x32_2"/>

<g id="_x32_3"/>

<g id="_x32_4"/>

<g id="_x32_5"/>

</svg>