<?xml version="1.0" encoding="iso-8859-1"?>
<!-- Uploaded to: SVG Repo, www.svgrepo.com, Generator: SVG Repo Mixer Tools -->
<svg fill="#000000" height="40px" width="40px" version="1.1" id="Layer_1" xmlns="http://www.w3.org/2000/svg" xmlns:xlink="http://www.w3.org/1999/xlink" 
	 viewBox="0 0 511.999 511.999" xml:space="preserve">
<g>
	<g>
		<path d="M388.458,374.966H349.9v-19.123h15.355c10.083,0,18.286-8.203,18.286-18.286v-66.227c0-10.082-8.202-18.286-18.286-18.286
			H143.56c-10.082,0-18.286,8.204-18.286,18.286v66.227c0,10.082,8.203,18.286,18.286,18.286h14.919v19.123h-36.045
			c-7.202,0-13.061,5.859-13.061,13.061v11.923c0,7.203,5.859,13.061,13.061,13.061h13.733v37.607
			c0,7.202,5.859,13.061,13.061,13.061h17.215c7.202,0,13.061-5.859,13.061-13.061v-37.607h149.928v37.607
			c0,7.202,5.859,13.061,13.061,13.061h17.214c7.203,0,13.061-5.859,13.061-13.061v-37.607h15.69
			c7.203,0,13.061-5.859,13.061-13.061v-11.923C401.519,380.825,395.66,374.966,388.458,374.966z M140.947,297.65h36.685
			c4.328,0,7.837-3.509,7.837-7.837c0-4.328-3.509-7.837-7.837-7.837h-36.685v-10.645c0-1.416,1.196-2.612,2.612-2.612h221.695
			c1.416,0,2.612,1.196,2.612,2.612v10.645H211.068c-4.328,0-7.837,3.509-7.837,7.837c0,4.328,3.509,7.837,7.837,7.837h156.798
			v13.259H140.947V297.65z M143.56,340.17c-1.416,0-2.612-1.196-2.612-2.612v-10.976h226.919v10.976
			c0,1.416-1.196,2.612-2.612,2.612H143.56z M334.226,355.844v19.123h-6.331v-19.123H334.226z M312.222,355.844v19.123H196.158
			v-19.123H312.222z M180.484,355.844v19.123h-6.333v-19.123H180.484z M163.83,448.007h-11.99v-34.995h11.99V448.007z
			 M357.094,448.007h-11.989v-34.995h11.989V448.007z M385.845,397.339h-260.8v-6.699h260.8V397.339z"/>
	</g>
</g>
<g>
	<g>
		<path d="M101.93,283.444c3.714-6.947,5.772-14.826,5.772-23.046c0-13.593-5.534-28.589-14.458-40.137
			c3.781-6.139,5.969-13.363,5.969-21.092c0-20.8-16.863-51.652-40.159-51.652c-23.296,0-40.159,30.853-40.159,51.652
			c0,7.729,2.188,14.953,5.97,21.092c-8.923,11.547-14.458,26.544-14.458,40.137c0,8.244,2.067,16.118,5.771,23.049
			C6.106,296.698,0,313.595,0,329.276c0,29.988,22.348,54.823,51.218,58.681v68.856c0,4.328,3.509,7.837,7.837,7.837
			s7.837-3.509,7.837-7.837v-68.855c28.87-3.857,51.219-28.694,51.219-58.681C118.11,313.594,112.003,296.695,101.93,283.444z
			 M59.056,163.19c12.147,0,24.485,20.932,24.485,35.979c0,13.558-10.984,24.587-24.485,24.587
			c-13.501,0-24.485-11.03-24.485-24.587C34.57,184.122,46.909,163.19,59.056,163.19z M66.891,372.096v-14.712l20.638-20.638
			c3.061-3.06,3.061-8.023,0-11.082c-3.059-3.06-8.022-3.06-11.082,0l-17.392,17.392l-17.391-17.392
			c-3.059-3.06-8.022-3.06-11.082,0c-3.061,3.06-3.061,8.023,0,11.082l20.637,20.638v14.712
			c-20.191-3.715-35.544-21.496-35.544-42.82c0-10.925,4.031-22.926,10.578-32.851c4.868,4.459,10.681,7.971,17.207,10.186
			c0.835,0.283,1.683,0.417,2.518,0.417c3.266,0,6.314-2.057,7.421-5.322c1.391-4.099-0.806-8.548-4.904-9.939
			c-13.406-4.545-22.413-17.153-22.413-31.37c0-9.34,3.816-19.99,9.687-28.46c6.573,4.709,14.61,7.492,23.288,7.492
			c8.678,0,16.713-2.783,23.287-7.491c5.871,8.47,9.687,19.12,9.687,28.459c0,13.227-7.816,25.162-19.914,30.408
			c-3.971,1.722-5.794,6.336-4.072,10.307c1.721,3.971,6.336,5.796,10.307,4.072c5.05-2.189,9.591-5.169,13.51-8.758
			c6.545,9.924,10.576,21.924,10.576,32.849C102.437,350.601,87.083,368.382,66.891,372.096z"/>
	</g>
</g>
<g>
	<g>
		<path d="M49.918,243.781h-4.727c-4.328,0-7.837,3.509-7.837,7.837c0,4.328,3.509,7.837,7.837,7.837h4.727
			c4.328,0,7.837-3.509,7.837-7.837C57.755,247.289,54.246,243.781,49.918,243.781z"/>
	</g>
</g>
<g>
	<g>
		<path d="M66.646,198.825h-4.727c-4.328,0-7.837,3.509-7.837,7.837c0,4.328,3.509,7.837,7.837,7.837h4.727
			c4.328,0,7.837-3.509,7.837-7.837C74.482,202.334,70.974,198.825,66.646,198.825z"/>
	</g>
</g>
<g>
	<g>
		<path d="M59.327,174.779H54.6c-4.328,0-7.837,3.509-7.837,7.837c0,4.329,3.509,7.837,7.837,7.837h4.727
			c4.328,0,7.837-3.509,7.837-7.837S63.655,174.779,59.327,174.779z"/>
	</g>
</g>
<g>
	<g>
		<path d="M72.918,262.599h-4.727c-4.328,0-7.837,3.509-7.837,7.837c0,4.328,3.509,7.837,7.837,7.837h4.727
			c4.328,0,7.837-3.509,7.837-7.837C80.755,266.108,77.246,262.599,72.918,262.599z"/>
	</g>
</g>
<g>
	<g>
		<path d="M495.82,283.444c3.714-6.947,5.772-14.826,5.772-23.046c0-13.593-5.534-28.589-14.458-40.137
			c3.781-6.139,5.97-13.363,5.97-21.092c0-20.8-16.863-51.652-40.159-51.652s-40.159,30.853-40.159,51.652
			c0,7.729,2.188,14.953,5.97,21.092c-8.926,11.548-14.459,26.545-14.459,40.138c0,8.244,2.067,16.118,5.771,23.049
			c-10.073,13.251-16.178,30.149-16.178,45.83c0,29.988,22.348,54.823,51.218,58.681v68.856c0,4.328,3.509,7.837,7.837,7.837
			s7.837-3.509,7.837-7.837v-68.857c28.87-3.857,51.219-28.694,51.219-58.681C512,313.594,505.893,296.695,495.82,283.444z
			 M452.945,163.19c12.147,0,24.485,20.932,24.485,35.979c0,13.558-10.984,24.587-24.485,24.587
			c-13.501,0-24.485-11.03-24.485-24.587C428.46,184.122,440.799,163.19,452.945,163.19z M460.781,372.096v-14.712l20.639-20.638
			c3.06-3.06,3.06-8.023,0-11.082c-3.06-3.06-8.022-3.06-11.083,0l-17.392,17.392l-17.391-17.392c-3.059-3.06-8.022-3.06-11.082,0
			s-3.06,8.023,0,11.082l20.637,20.638v14.712c-20.191-3.716-35.544-21.496-35.544-42.82c0-10.925,4.031-22.926,10.577-32.851
			c4.868,4.459,10.681,7.971,17.207,10.186c0.835,0.283,1.683,0.417,2.518,0.417c3.266,0,6.314-2.057,7.421-5.322
			c1.391-4.099-0.806-8.548-4.904-9.939c-13.405-4.547-22.412-17.154-22.412-31.371c0-9.34,3.816-19.99,9.687-28.46
			c6.573,4.709,14.61,7.492,23.288,7.492s16.713-2.783,23.287-7.491c5.871,8.47,9.687,19.12,9.687,28.459
			c0,13.227-7.816,25.162-19.914,30.408c-3.971,1.722-5.794,6.336-4.072,10.307c1.721,3.971,6.336,5.796,10.307,4.072
			c5.049-2.189,9.591-5.169,13.51-8.758c6.543,9.928,10.574,21.927,10.574,32.852C496.327,350.601,480.973,368.382,460.781,372.096z
			"/>
	</g>
</g>
<g>
	<g>
		<path d="M443.808,243.781h-4.727c-4.328,0-7.837,3.509-7.837,7.837c0,4.328,3.509,7.837,7.837,7.837h4.727
			c4.328,0,7.837-3.509,7.837-7.837C451.645,247.289,448.136,243.781,443.808,243.781z"/>
	</g>
</g>
<g>
	<g>
		<path d="M460.536,198.825h-4.727c-4.328,0-7.837,3.509-7.837,7.837c0,4.328,3.509,7.837,7.837,7.837h4.727
			c4.328,0,7.837-3.509,7.837-7.837C468.372,202.334,464.864,198.825,460.536,198.825z"/>
	</g>
</g>
<g>
	<g>
		<path d="M453.217,174.779h-4.727c-4.328,0-7.837,3.509-7.837,7.837c0,4.329,3.509,7.837,7.837,7.837h4.727
			c4.328,0,7.837-3.509,7.837-7.837S457.545,174.779,453.217,174.779z"/>
	</g>
</g>
<g>
	<g>
		<path d="M466.808,262.599h-4.727c-4.328,0-7.837,3.509-7.837,7.837c0,4.328,3.509,7.837,7.837,7.837h4.727
			c4.328,0,7.837-3.509,7.837-7.837C474.645,266.108,471.136,262.599,466.808,262.599z"/>
	</g>
</g>
<g>
	<g>
		<path d="M342.38,65.863c-11.917-11.94-27.763-18.516-44.619-18.516c-15.792,0-30.698,5.773-42.316,16.319
			c-11.618-10.547-26.523-16.319-42.315-16.319c-16.857,0-32.703,6.576-44.62,18.515c-11.913,11.935-18.475,27.803-18.475,44.682
			s6.56,32.747,18.47,44.678l73.828,74.027c3.5,3.508,8.157,5.44,13.112,5.44c4.889,0,9.671-1.984,13.116-5.442l9.242-9.267
			l11.05,11.08c2.338,2.341,5.449,3.629,8.757,3.629c3.266,0,6.461-1.325,8.764-3.635l31.364-31.45
			c5.912-5.921,9.168-13.795,9.168-22.169c0-7.277-2.462-14.173-6.984-19.741l2.463-2.469c3.056-3.065,3.049-8.027-0.016-11.083
			c-3.066-3.056-8.028-3.05-11.083,0.016l-4.119,4.13c-3.635-1.448-7.546-2.212-11.576-2.212c-6.528,0-12.75,1.987-17.98,5.675
			c-5.23-3.687-11.453-5.675-17.981-5.675c-8.365,0-16.23,3.264-22.144,9.19c-5.913,5.922-9.17,13.795-9.17,22.17
			c0,8.374,3.256,16.247,9.165,22.165l9.256,9.282l-9.274,9.3c-1.055,1.06-2.973,1.06-4.032-0.002L179.6,144.15
			c-8.958-8.975-13.891-20.909-13.891-33.608c0-12.698,4.934-24.633,13.894-33.608c8.955-8.973,20.861-13.914,33.527-13.914
			c12.663,0,24.569,4.941,33.525,13.915c5.829,6.688,11.754,6.859,17.58-0.001c8.956-8.973,20.862-13.914,33.526-13.914
			c12.664,0,24.571,4.941,33.526,13.914c8.96,8.978,13.895,20.914,13.895,33.608c0,4.026-0.497,8.016-1.477,11.862
			c-1.069,4.194,1.463,8.461,5.657,9.531c4.197,1.067,8.462-1.463,9.531-5.657c1.303-5.11,1.963-10.403,1.963-15.734
			C360.854,93.667,354.294,77.799,342.38,65.863z M263.987,177.434c0-4.192,1.629-8.132,4.589-11.096
			c2.955-2.96,6.88-4.591,11.053-4.591c4.175,0,8.101,1.631,11.055,4.59l1.377,1.38c1.47,1.473,3.465,2.301,5.546,2.302h0.001
			c2.08,0,4.075-0.828,5.545-2.3l1.379-1.381c2.955-2.96,6.882-4.591,11.056-4.591c4.174,0,8.099,1.63,11.055,4.591
			c2.958,2.962,4.587,6.903,4.587,11.095c0,4.192-1.629,8.132-4.589,11.099l-29.033,29.113l-29.035-29.116
			C265.617,185.566,263.987,181.626,263.987,177.434z"/>
	</g>
</g>
</svg>