<?xml version="1.0" encoding="utf-8"?>

<!DOCTYPE svg PUBLIC "-//W3C//DTD SVG 1.1//EN" "http://www.w3.org/Graphics/SVG/1.1/DTD/svg11.dtd">
<!-- Uploaded to: SVG Repo, www.svgrepo.com, Generator: SVG Repo Mixer Tools -->
<svg height="800px" width="800px" version="1.1" id="_x32_" xmlns="http://www.w3.org/2000/svg" xmlns:xlink="http://www.w3.org/1999/xlink" 
	 viewBox="0 0 512 512"  xml:space="preserve">
<style type="text/css">
	.st0{fill:#000000;}
</style>
<g>
	<path class="st0" d="M312.464,239.442c-28.247,0-54.468,8.586-76.228,23.317c-0.878-3.788-1.894-7.504-2.976-11.154
		c-6.013-19.866-15.338-38.384-28.314-57.511c-10.21-15.14-13.72-31.83-13.72-47.709c0-19.331,5.339-37.243,9.391-47.242
		c4.125-10.276,6.085-21.489,6.085-32.51c0-16.282-4.191-32.3-13.114-45.004c-4.462-6.356-10.138-11.761-17.094-15.615
		c-6.897-3.855-15.074-6.079-23.858-6.013c-8.857-0.066-16.962,2.158-23.924,6.013c-10.408,5.748-17.978,15.073-22.915,25.68
		c-4.93,10.678-7.293,22.71-7.293,34.939c0,11.021,1.96,22.234,6.079,32.51c4.058,9.999,9.398,27.911,9.398,47.242
		c0,15.879-3.518,32.57-13.721,47.709c-12.975,19.126-22.301,37.645-28.32,57.511c-6.013,19.872-8.718,41.024-8.718,65.424
		c0,14.123,0.951,29.395,2.567,46.225c6.151,62.981,27.508,107.253,27.779,107.86l2.501,5.069h113.061l2.501-5.069
		c0.072-0.066,0.475-0.951,1.148-2.501C237.656,495.309,273.137,512,312.464,512c75.29,0,136.312-61.028,136.312-136.312
		C448.776,300.47,387.755,239.442,312.464,239.442z M126.278,31.964c3.109-4.389,6.824-7.906,11.154-10.269
		c4.323-2.369,9.187-3.716,15.206-3.716c5.946,0,10.81,1.346,15.14,3.716c6.416,3.583,11.623,9.596,15.338,17.569
		c3.65,7.906,5.609,17.502,5.609,27.369c0,8.856-1.623,17.912-4.798,25.818c-0.746,1.828-1.485,3.854-2.231,6.012h-58.19
		c-0.739-2.158-1.486-4.184-2.231-6.012c-3.174-7.906-4.798-16.962-4.798-25.818C116.412,53.526,119.995,40.749,126.278,31.964z
		 M176.76,115.63c-1.551,7.233-2.838,15.206-3.241,23.792h-41.836c-0.403-8.586-1.69-16.559-3.241-23.792H176.76z M198.592,456.04
		c-0.337,0.812-0.607,1.492-0.944,2.164h-90.087c-5.478-12.909-19.331-49.4-23.858-96.707c-1.623-16.426-2.501-31.091-2.501-44.469
		c0-23.113,2.501-42.312,7.906-60.217c5.405-17.912,13.787-34.602,26.023-52.646c10.204-15.074,14.797-31.362,16.282-46.7h42.377
		c1.485,15.338,6.085,31.626,16.288,46.7c12.23,18.044,20.611,34.734,26.017,52.646c1.828,5.946,3.247,12.025,4.395,18.38
		c-27.237,24.868-44.265,60.692-44.265,100.495c0,28.518,8.784,55.009,23.72,76.907C199.47,453.882,198.995,455.031,198.592,456.04z
		 M394.513,457.73c-21.02,21.02-49.947,33.996-82.048,33.996c-32.028,0-60.955-12.975-82.042-33.996
		c-3.314-3.379-6.422-6.89-9.259-10.606c-4.865-6.085-9.056-12.712-12.566-19.806c-7.774-15.476-12.098-33.045-12.098-51.63
		c0-28.386,10.137-54.27,27.099-74.406c2.092-2.64,4.389-5.142,6.824-7.57c3.108-3.042,6.356-5.946,9.734-8.652
		c19.866-15.879,44.938-25.343,72.307-25.343c32.102,0,61.028,12.975,82.048,33.996c21.014,21.013,33.989,49.94,33.989,81.976
		C428.502,407.79,415.527,436.716,394.513,457.73z"/>
	<path class="st0" d="M396.038,376.665c-7.9,0-14.302,7.675-14.302,17.146c0,9.464,6.402,17.14,14.302,17.14
		c7.894,0,14.289-7.675,14.289-17.14C410.326,384.34,403.931,376.665,396.038,376.665z"/>
	<path class="st0" d="M353.403,331.496c-8.382,2.138-13.278,11.299-10.956,20.459c2.336,9.187,11.029,14.89,19.41,12.758
		c8.388-2.132,13.292-11.298,10.956-20.473C370.484,335.059,361.798,329.37,353.403,331.496z"/>
	<path class="st0" d="M337.993,387.066c-8.917-0.343-16.454,7.029-16.83,16.5c-0.376,9.451,6.548,17.41,15.47,17.773
		c8.923,0.343,16.447-7.042,16.829-16.5C353.839,395.382,346.916,387.429,337.993,387.066z"/>
</g>
</svg>